<?xml version="1.0" encoding="UTF-8" standalone="no"?>
<!-- Created with Inkscape (http://www.inkscape.org/) -->

<svg
   xmlns:dc="http://purl.org/dc/elements/1.1/"
   xmlns:cc="http://creativecommons.org/ns#"
   xmlns:rdf="http://www.w3.org/1999/02/22-rdf-syntax-ns#"
   xmlns:svg="http://www.w3.org/2000/svg"
   xmlns="http://www.w3.org/2000/svg"
   xmlns:sodipodi="http://sodipodi.sourceforge.net/DTD/sodipodi-0.dtd"
   xmlns:inkscape="http://www.inkscape.org/namespaces/inkscape"
   id="svg2"
   version="1.1"
   inkscape:version="0.91 r13725"
   xml:space="preserve"
   width="375"
   height="180"
   viewBox="0 0 375 180"
   sodipodi:docname="drawer_spinner.svg"><defs
     id="defs6"><clipPath
       clipPathUnits="userSpaceOnUse"
       id="clipPath4139"><rect
         style="opacity:1;fill:#000000;fill-opacity:0.8;stroke:none;"
         id="rect4141"
         width="375"
         height="180"
         x="0"
         y="0" /></clipPath></defs><metadata
     id="metadata8"><rdf:RDF><cc:Work
         rdf:about=""><dc:format>image/svg+xml</dc:format><dc:type
           rdf:resource="http://purl.org/dc/dcmitype/StillImage" /><dc:title /></cc:Work></rdf:RDF></metadata><sodipodi:namedview
     pagecolor="#ffffff"
     bordercolor="#666666"
     borderopacity="1"
     objecttolerance="10"
     gridtolerance="10"
     guidetolerance="10"
     inkscape:pageopacity="0"
     inkscape:pageshadow="2"
     inkscape:window-width="1280"
     inkscape:window-height="657"
     id="namedview4"
     showgrid="false"
     inkscape:zoom="0.912"
     inkscape:cx="240.40227"
     inkscape:cy="27.753913"
     inkscape:window-x="1912"
     inkscape:window-y="-8"
     inkscape:window-maximized="1"
     inkscape:current-layer="svg2" /><path
     style="opacity:1;fill:#0066ff;fill-opacity:1;stroke:none;"
     d="M 164.39648 -27.845703 L 133.27734 0 L 160.22266 0 L 168.26172 -7.6445312 L 164.39648 -27.845703 z M 160.22266 0 L 156.57031 3.4726562 L 232.83789 87.988281 C 255.52789 78.183277 259.06375 61.97409 276.96875 81.996094 L 232.45703 121.82812 L 274.97852 180 L 375 180 L 375 0 L 160.22266 0 z M 274.97852 180 L 264.59766 180 L 296.0918 208.88477 L 274.97852 180 z M 264.59766 180 L 216.61719 135.99609 L 172.10352 175.82812 C 154.18752 155.80613 173.27913 151.11486 182.70312 130.88086 L 107.05078 47.785156 L 91.908203 58.710938 L 75.414062 51.777344 L 133.27734 0 L 0 0 L 0 180 L 264.59766 180 z "
     id="rect4134"
     clip-path="url(#clipPath4139)" /><rect
     style="opacity:1;fill:#000000;fill-opacity:0.6;stroke:none;"
     id="rect4143"
     width="375"
     height="180"
     x="0"
     y="0" /></svg>