<?xml version="1.0" encoding="UTF-8" standalone="no"?>
<!-- Generator: Adobe Illustrator 16.0.3, SVG Export Plug-In . SVG Version: 6.00 Build 0)  -->

<svg
   xmlns:dc="http://purl.org/dc/elements/1.1/"
   xmlns:cc="http://creativecommons.org/ns#"
   xmlns:rdf="http://www.w3.org/1999/02/22-rdf-syntax-ns#"
   xmlns:svg="http://www.w3.org/2000/svg"
   xmlns="http://www.w3.org/2000/svg"
   xmlns:sodipodi="http://sodipodi.sourceforge.net/DTD/sodipodi-0.dtd"
   xmlns:inkscape="http://www.inkscape.org/namespaces/inkscape"
   version="1.1"
   id="Layer_1"
   x="0px"
   y="0px"
   width="24"
   height="24"
   viewBox="0 0 24 24"
   enable-background="new 0 0 48 48"
   xml:space="preserve"
   inkscape:version="0.91 r13725"
   sodipodi:docname="ic_bookmark_private_black_24dp.svg"><sodipodi:namedview
     pagecolor="#ffffff"
     bordercolor="#666666"
     borderopacity="1"
     objecttolerance="10"
     gridtolerance="10"
     guidetolerance="10"
     inkscape:pageopacity="0"
     inkscape:pageshadow="2"
     inkscape:window-width="1187"
     inkscape:window-height="705"
     id="namedview7"
     showgrid="false"
     inkscape:zoom="9.8333333"
     inkscape:cx="12"
     inkscape:cy="12"
     inkscape:window-x="0"
     inkscape:window-y="0"
     inkscape:window-maximized="0"
     inkscape:current-layer="Layer_1" /><metadata
     id="metadata17"><rdf:RDF><cc:Work
         rdf:about=""><dc:format>image/svg+xml</dc:format><dc:type
           rdf:resource="http://purl.org/dc/dcmitype/StillImage" /><dc:title /></cc:Work></rdf:RDF></metadata><defs
     id="defs15" /><path
     d="m 0,-24 48,0 0,48 -48,0 0,-48 z"
     id="path3"
     inkscape:connector-curvature="0"
     style="fill:none" /><path
     id="path11"
     style="fill:#000000;fill-opacity:1"
     d="M 17,3 7,3 C 5.895,3 5.01,3.895 5.01,5 L 5,21 12,18 19,21 19,5 C 19,3.895 18.105,3 17,3 Z m -1.289,11.394 c 0,0.5115 -0.416,0.927 -0.9275,0.927 l -5.566,0 C 8.705,15.321 8.29,14.906 8.29,14.394 l 0,-4.6385 C 8.29,9.243 8.7055,8.828 9.2175,8.828 l 0.4635,0 0,-0.928 c 0,-1.2805 1.039,-2.319 2.3195,-2.319 1.28,0 2.319,1.039 2.319,2.319 l 0,0.9275 0.464,0 c 0.5115,0 0.9275,0.415 0.9275,0.9275 l 0,4.639 z M 12.9275,12.0745 A 0.9275,0.9275 0 0 1 12,13.002 0.9275,0.9275 0 0 1 11.0725,12.0745 0.9275,0.9275 0 0 1 12,11.147 0.9275,0.9275 0 0 1 12.9275,12.0745 Z M 12,6.4625 c -0.7935,0 -1.438,0.6445 -1.438,1.4375 l 0,0.9275 2.876,0 0,-0.9275 C 13.4385,7.107 12.793,6.4625 12,6.4625 Z"
     inkscape:connector-curvature="0" /></svg>