<?xml version="1.0" encoding="UTF-8" standalone="no"?>
<!-- Generator: Adobe Illustrator 16.0.3, SVG Export Plug-In . SVG Version: 6.00 Build 0)  -->

<svg
   xmlns:dc="http://purl.org/dc/elements/1.1/"
   xmlns:cc="http://creativecommons.org/ns#"
   xmlns:rdf="http://www.w3.org/1999/02/22-rdf-syntax-ns#"
   xmlns:svg="http://www.w3.org/2000/svg"
   xmlns="http://www.w3.org/2000/svg"
   version="1.1"
   id="Layer_1"
   x="0px"
   y="0px"
   width="24"
   height="24"
   viewBox="0 0 24 24"
   enable-background="new 0 0 48 48"
   xml:space="preserve">
    <metadata
     id="metadata11">
        <rdf:RDF>
            <cc:Work rdf:about="">
                <dc:format>image/svg+xml</dc:format>
                <dc:type rdf:resource="http://purl.org/dc/dcmitype/StillImage" />
                <dc:title/>
            </cc:Work>
        </rdf:RDF>
    </metadata>
    <defs id="defs9" />
    <path d="m 0,-24 48,0 0,48 -48,0 0,-48 z" id="path3" style="fill:none" />
    <path d="M 17,3 7,3 C 5.895,3 5.01,3.895 5.01,5 L 5,21 12,18 19,21 19,5 C 19,3.895 18.105,3 17,3 Z M 17,18 12,15.825 7,18 7,5 17,5 17,18 Z m -2.217,-9.172 -0.464,0 0,-0.928 C 14.319,6.6195 13.28,5.581 12,5.581 10.7195,5.581 9.6805,6.62 9.6805,7.9 l 0,0.9275 -0.4635,0 c -0.5125,0 -0.9275,0.415 -0.9275,0.9275 l 0,4.6385 c 0,0.5115 0.4155,0.927 0.9275,0.927 l 5.566,0 c 0.5115,0 0.9275,-0.415 0.9275,-0.927 l 0,-4.6385 C 15.711,9.243 15.295,8.828 14.783,8.828 Z M 12,13.0025 c -0.5125,0 -0.9275,-0.416 -0.9275,-0.9275 0,-0.5125 0.415,-0.9275 0.9275,-0.9275 0.5125,0 0.9275,0.415 0.9275,0.9275 0,0.5115 -0.415,0.9275 -0.9275,0.9275 z m 1.4385,-4.1745 -2.876,0 0,-0.928 c 0,-0.793 0.6445,-1.4375 1.438,-1.4375 0.7925,0 1.438,0.6445 1.438,1.4375 l 0,0.928 z"
     id="path5"
     style="fill:#000000;fill-opacity:1" />
</svg>