<?xml version="1.0" encoding="utf-8"?>
<!-- Generator: Adobe Illustrator 16.0.3, SVG Export Plug-In . SVG Version: 6.00 Build 0)  -->
<!DOCTYPE svg PUBLIC "-//W3C//DTD SVG 1.1//EN" "http://www.w3.org/Graphics/SVG/1.1/DTD/svg11.dtd">
<svg version="1.1" id="Layer_1" xmlns="http://www.w3.org/2000/svg" xmlns:xlink="http://www.w3.org/1999/xlink" x="0px" y="0px"
	 width="48px" height="48px" viewBox="0 0 48 48" enable-background="new 0 0 48 48" xml:space="preserve">
<path fill="none" d="M0,0h48v48H0V0z"/>
<path fill="#757575" d="M34,6H14c-2.21,0-3.98,1.79-3.98,4L10,42l14-6l14,6V10C38,7.79,36.21,6,34,6z M34,36l-10-4.35L14,36V10h20
	V36z M29.566,17.656h-0.928V15.8c0-2.561-2.078-4.638-4.638-4.638c-2.561,0-4.639,2.078-4.639,4.638v1.855h-0.927
	c-1.025,0-1.855,0.83-1.855,1.855v9.277c0,1.023,0.831,1.854,1.855,1.854h11.132c1.023,0,1.855-0.83,1.855-1.854v-9.277
	C31.422,18.486,30.59,17.656,29.566,17.656z M24,26.005c-1.025,0-1.855-0.832-1.855-1.855c0-1.025,0.83-1.855,1.855-1.855
	c1.025,0,1.855,0.83,1.855,1.855C25.855,25.173,25.025,26.005,24,26.005z M26.877,17.656h-5.752V15.8
	c0-1.586,1.289-2.875,2.876-2.875c1.585,0,2.876,1.289,2.876,2.875V17.656z"/>
</svg>
