<?xml version="1.0" encoding="utf-8"?>
<!-- Generator: Adobe Illustrator 16.0.3, SVG Export Plug-In . SVG Version: 6.00 Build 0)  -->
<!DOCTYPE svg PUBLIC "-//W3C//DTD SVG 1.1//EN" "http://www.w3.org/Graphics/SVG/1.1/DTD/svg11.dtd">
<svg version="1.1" id="Layer_1" xmlns="http://www.w3.org/2000/svg" xmlns:xlink="http://www.w3.org/1999/xlink" x="0px" y="0px"
	 width="48px" height="48px" viewBox="0 0 48 48" enable-background="new 0 0 48 48" xml:space="preserve">
<path fill="none" d="M0,0h48v48H0V0z"/>
<g>
	<path fill="#757575" d="M24,12.925c-1.587,0-2.876,1.289-2.876,2.875v1.855h5.752V15.8C26.877,14.214,25.586,12.925,24,12.925z"/>
	<circle fill="#757575" cx="24" cy="24.149" r="1.855"/>
	<path fill="#757575" d="M34,6H14c-2.21,0-3.98,1.79-3.98,4L10,42l14-6l14,6V10C38,7.79,36.21,6,34,6z M31.422,28.788
		c0,1.023-0.832,1.854-1.855,1.854H18.435c-1.025,0-1.855-0.83-1.855-1.854v-9.277c0-1.025,0.831-1.855,1.855-1.855h0.927V15.8
		c0-2.561,2.078-4.638,4.639-4.638c2.56,0,4.638,2.078,4.638,4.638v1.855h0.928c1.023,0,1.855,0.83,1.855,1.855V28.788z"/>
</g>
</svg>
