<?xml version="1.0" encoding="UTF-8" standalone="no"?>
<!-- Created with Inkscape (http://www.inkscape.org/) -->

<svg
   xmlns:dc="http://purl.org/dc/elements/1.1/"
   xmlns:cc="http://creativecommons.org/ns#"
   xmlns:rdf="http://www.w3.org/1999/02/22-rdf-syntax-ns#"
   xmlns:svg="http://www.w3.org/2000/svg"
   xmlns="http://www.w3.org/2000/svg"
   xmlns:sodipodi="http://sodipodi.sourceforge.net/DTD/sodipodi-0.dtd"
   xmlns:inkscape="http://www.inkscape.org/namespaces/inkscape"
   id="svg2"
   version="1.1"
   inkscape:version="0.91 r13725"
   xml:space="preserve"
   width="500"
   height="500"
   viewBox="0 0 500 500"
   sodipodi:docname="ic_main_read_later.svg"
   inkscape:export-filename="C:\Users\MSchmidt\StudioProjects\PinDroid\app\src\main\res\drawable-hdpi\ic_main_read_later.png"
   inkscape:export-xdpi="12.96"
   inkscape:export-ydpi="12.96"><metadata
     id="metadata8"><rdf:RDF><cc:Work
         rdf:about=""><dc:format>image/svg+xml</dc:format><dc:type
           rdf:resource="http://purl.org/dc/dcmitype/StillImage" /><dc:title></dc:title></cc:Work></rdf:RDF></metadata><defs
     id="defs6"><clipPath
       clipPathUnits="userSpaceOnUse"
       id="clipPath16"><path
         d="M 0,400 400,400 400,0 0,0 0,400 Z"
         id="path18"
         inkscape:connector-curvature="0" /></clipPath></defs><sodipodi:namedview
     pagecolor="#ffffff"
     bordercolor="#666666"
     borderopacity="1"
     objecttolerance="10"
     gridtolerance="10"
     guidetolerance="10"
     inkscape:pageopacity="0"
     inkscape:pageshadow="2"
     inkscape:window-width="1061"
     inkscape:window-height="555"
     id="namedview4"
     showgrid="false"
     inkscape:zoom="0.472"
     inkscape:cx="250"
     inkscape:cy="250"
     inkscape:window-x="2024"
     inkscape:window-y="49"
     inkscape:window-maximized="0"
     inkscape:current-layer="g14" /><g
     id="g10"
     inkscape:groupmode="layer"
     inkscape:label="ic_main"
     transform="matrix(1.25,0,0,-1.25,0,500)"><g
       id="g12"><g
         id="g14"
         clip-path="url(#clipPath16)"><g
           id="g20"
           transform="translate(19.9902,269.5601)"><path
             d="m 0,0 c -6.37,23.74 2.61,39.28 26.37,45.64 l 229.05,61.32 c 23.76,6.36 39.309,-2.61 45.67,-26.35 l 58.93,-219.731 c 6.37,-23.739 -2.61,-39.279 -26.371,-45.639 L 104.6,-246.08 c -23.76,-6.36 -39.31,2.61 -45.67,26.35 L 0,0 Z"
             style="fill:#ffffff;fill-opacity:1;fill-rule:evenodd;stroke:#0066ff;stroke-opacity:1;stroke-width:12.8;stroke-miterlimit:4;stroke-dasharray:none"
             id="path22"
             inkscape:connector-curvature="0" /></g><g
           id="g24"
           transform="translate(233.8994,176.7197)"><path
             d="M 0,0 60.101,-82.22 -14.96,-13.38 -57,-51 c -16.919,18.91 1.11,23.341 10.011,42.45 l -71.45,78.48 -14.3,-10.32 -15.58,6.55 84.04,75.2 3.65,-19.08 -11.04,-10.5 L 0.36,31.96 c 21.43,9.26 24.77,24.57 41.68,5.66 L 0,0 Z"
             style="fill:#0066ff;fill-opacity:1;fill-rule:evenodd;stroke:none"
             id="path26"
             inkscape:connector-curvature="0" /></g></g></g></g></svg>