<svg x="0" y="0" width="48" height="48" version="1.1" xmlns="http://www.w3.org/2000/svg" xmlns:xlink="http://www.w3.org/1999/xlink"><defs><linearGradient x1="17.76052" y1="12.27587" x2="57.01315" y2="62.49781" gradientUnits="userSpaceOnUse" id="color-1"><stop offset="0.3" stop-color="#000000" stop-opacity="0.15"></stop><stop offset="1" stop-color="#000000" stop-opacity="0"></stop></linearGradient><filter id="dropshadow"><feColorMatrix type="matrix" values="0 0 0 0 .05  0 0 0 0 .15  0 0 0 0 .1  0 0 0 .8 0"></feColorMatrix> <feOffset dx="0" dy="1"></feOffset> <feGaussianBlur stdDeviation="1"></feGaussianBlur> <feComposite in="SourceGraphic"></feComposite></filter></defs><g fill="none" stroke="none" stroke-width="none" stroke-linecap="butt" stroke-linejoin="miter" stroke-miterlimit="none" stroke-dasharray="" stroke-dashoffset="0" font-family="none" font-weight="normal" font-size="none" text-anchor="start" mix-blend-mode="normal"><g id="svg2" fill="#000000" stroke="none" stroke-width="1" stroke-miterlimit="4" font-family="'Open Sans', sans-serif" font-size="14"><g id="g10"><g id="g12"><g id="g24"></g></g></g></g><g id="svg2" fill="#000000" stroke="none" stroke-width="1" stroke-miterlimit="4" font-family="'Open Sans', sans-serif" font-size="14"><g id="g10"><g id="g12"><g id="g24"></g></g></g></g><path d="M4,24c0,-11.04569 8.95431,-20 20,-20c11.04569,0 20,8.95431 20,20c0,11.04569 -8.95431,20 -20,20c-11.04569,0 -20,-8.95431 -20,-20z" fill="#0066ff" stroke-width="1" stroke-miterlimit="10" font-family="sans-serif" font-size="12" filter="url(#dropshadow)"></path><path d="M23.95176,35.72407c0,0 -0.34576,-3.68226 -0.34576,-3.68226l-5.84548,-5.84548c0.01213,-2.38353 1.54698,-1.56261 3.3702,-2.34062l0.00001,0.00001l-0.0303,-8.49346l-1.65117,-1.65117l-0.67285,-1.43522c0,0 1.52605,1.52605 1.52605,1.52605l0.00001,0l-1.52606,-1.52606l10.58899,0.01229l0.00001,0.00001l0,-0.00001l14.44886,14.44886c-1.01074,7.38567 -6.05375,13.48704 -12.83728,16.01234l-7.02524,-7.02524z" fill="url(#color-1)" stroke-width="1" stroke-miterlimit="10" font-family="sans-serif" font-size="12"></path><path d="M24.94222,26.20499l-0.99047,9.51914l-0.89408,-9.52178l-5.29715,-0.00601c0.01213,-2.38353 1.54698,-1.56261 3.3702,-2.34062l-0.03557,-9.96942l-1.6459,-0.17523l-0.67285,-1.43522l10.58899,0.0123l-0.94712,1.56318l-1.43015,0.04183l-0.00847,10.09944c2.07582,0.69654 3.27247,-0.16459 3.25971,2.21837z" fill="#ffffff" stroke="none" stroke-width="0" stroke-miterlimit="4" font-family="'Open Sans', sans-serif" font-size="14"></path></g></svg>