<?xml version="1.0" encoding="utf-8"?>
<!-- Generator: Adobe Illustrator 16.0.3, SVG Export Plug-In . SVG Version: 6.00 Build 0)  -->
<!DOCTYPE svg PUBLIC "-//W3C//DTD SVG 1.1//EN" "http://www.w3.org/Graphics/SVG/1.1/DTD/svg11.dtd">
<svg version="1.1" id="Layer_1" xmlns="http://www.w3.org/2000/svg" xmlns:xlink="http://www.w3.org/1999/xlink" x="0px" y="0px"
	 width="48px" height="48px" viewBox="0 0 48 48" enable-background="new 0 0 48 48" xml:space="preserve">
<path fill="#E51C23" d="M27,1.34c0,0,1.48,5.3,1.48,9.6c0,4.12-2.701,7.47-6.831,7.47c-4.13,0-7.25-3.34-7.25-7.47l0.05-0.72
	C10.43,15.03,8,21.23,8,28c0,8.84,7.16,16,16,16s16-7.16,16-16C40,17.21,34.811,7.59,27,1.34z M23.42,38
	c-3.56,0-6.45-2.811-6.45-6.28c0-3.25,2.09-5.53,5.63-6.239c3.541-0.711,7.2-2.411,9.23-5.15c0.779,2.58,1.189,5.3,1.189,8.07
	C33.02,33.689,28.721,38,23.42,38z"/>
<path fill="none" d="M0,0h48v48H0V0z"/>
</svg>
