<?xml version="1.0" encoding="utf-8"?>
<!-- Generator: Adobe Illustrator 16.0.3, SVG Export Plug-In . SVG Version: 6.00 Build 0)  -->
<!DOCTYPE svg PUBLIC "-//W3C//DTD SVG 1.1//EN" "http://www.w3.org/Graphics/SVG/1.1/DTD/svg11.dtd">
<svg version="1.1" id="Layer_1" xmlns="http://www.w3.org/2000/svg" xmlns:xlink="http://www.w3.org/1999/xlink" x="0px" y="0px"
	 width="48px" height="48px" viewBox="0 0 48 48" enable-background="new 0 0 48 48" xml:space="preserve">
<path fill="none" d="M0,0h48v48H0V0z"/>
<path fill="#9C27B0" d="M32,22c3.311,0,5.98-2.69,5.98-6s-2.67-6-5.98-6s-6,2.69-6,6S28.689,22,32,22z M16,22
	c3.31,0,5.98-2.69,5.98-6s-2.67-6-5.98-6s-6,2.69-6,6S12.69,22,16,22z M16,26c-4.67,0-14,2.34-14,7v5h28v-5C30,28.34,20.67,26,16,26
	z M32,26c-0.58,0-1.23,0.04-1.93,0.109C32.391,27.78,34,30.03,34,33v5h12v-5C46,28.34,36.67,26,32,26z"/>
</svg>
