<?xml version="1.0" encoding="utf-8"?>
<!-- Generator: Adobe Illustrator 16.0.3, SVG Export Plug-In . SVG Version: 6.00 Build 0)  -->
<!DOCTYPE svg PUBLIC "-//W3C//DTD SVG 1.1//EN" "http://www.w3.org/Graphics/SVG/1.1/DTD/svg11.dtd">
<svg version="1.1" id="Layer_1" xmlns="http://www.w3.org/2000/svg" xmlns:xlink="http://www.w3.org/1999/xlink" x="0px" y="0px"
	 width="48px" height="48px" viewBox="0 0 48 48" enable-background="new 0 0 48 48" xml:space="preserve">
<path fill="#259B24" fill-opacity="0.9" d="M23.99,4C12.94,4,4,12.95,4,24s8.94,20,19.99,20C35.04,44,44,35.05,44,24
	S35.04,4,23.99,4z M24,40c-8.84,0-16-7.16-16-16S15.16,8,24,8s16,7.16,16,16S32.84,40,24,40z"/>
<path fill="none" d="M0,0h48v48H0V0z"/>
<path fill="#259B24" fill-opacity="0.9" d="M25,14h-3v12l10.49,6.3L34,29.84l-9-5.34V14z"/>
</svg>
