<?xml version="1.0" encoding="utf-8"?>
<!-- Generator: Adobe Illustrator 16.0.3, SVG Export Plug-In . SVG Version: 6.00 Build 0)  -->
<!DOCTYPE svg PUBLIC "-//W3C//DTD SVG 1.1//EN" "http://www.w3.org/Graphics/SVG/1.1/DTD/svg11.dtd">
<svg version="1.1" id="Layer_1" xmlns="http://www.w3.org/2000/svg" xmlns:xlink="http://www.w3.org/1999/xlink" x="0px" y="0px"
	 width="48px" height="48px" viewBox="0 0 48 48" enable-background="new 0 0 48 48" xml:space="preserve">
<path fill="none" d="M0,0h48v48H0V0z"/>
<path fill="#FFBB33" d="M36,16h-2v-4c0-5.52-4.48-10-10-10c-5.52,0-10,4.48-10,10v4h-2c-2.21,0-4,1.79-4,4v20c0,2.21,1.79,4,4,4h24
	c2.21,0,4-1.79,4-4V20C40,17.79,38.21,16,36,16z M24,34c-2.21,0-4-1.79-4-4s1.79-4,4-4s4,1.79,4,4S26.21,34,24,34z M30.2,16H17.8v-4
	c0-3.42,2.78-6.2,6.2-6.2s6.2,2.78,6.2,6.2V16z"/>
</svg>
