<?xml version="1.0" encoding="utf-8"?>
<!-- Generator: Adobe Illustrator 16.0.3, SVG Export Plug-In . SVG Version: 6.00 Build 0)  -->
<!DOCTYPE svg PUBLIC "-//W3C//DTD SVG 1.1//EN" "http://www.w3.org/Graphics/SVG/1.1/DTD/svg11.dtd">
<svg version="1.1" id="Layer_1" xmlns="http://www.w3.org/2000/svg" xmlns:xlink="http://www.w3.org/1999/xlink" x="0px" y="0px"
	 width="48px" height="48px" viewBox="0 0 48 48" enable-background="new 0 0 48 48" xml:space="preserve">
<path fill="none" d="M0,0h48v48H0V0z"/>
<path fill="#FF4444" d="M6,24c0,4.42,1.82,8.4,4.71,11.29L6,40h12V28l-4.47,4.47C11.35,30.3,10,27.311,10,24
	c0-5.22,3.34-9.65,8-11.3V8.52C11.1,10.3,6,16.55,6,24z M22,34h4v-4h-4V34z M42,8H30v12l4.471-4.47C36.65,17.7,38,20.69,38,24
	c0,5.22-3.34,9.65-8,11.3v4.17C36.9,37.7,42,31.45,42,24c0-4.42-1.82-8.4-4.71-11.29L42,8z M22,26h4V14h-4V26z"/>
</svg>
